<svg width="0" height="0" class="hidden">
  <symbol id="heart" xmlns="http://www.w3.org/2000/svg" viewBox="0 0 512 512"><path d="M480.25 156.355c0 161.24-224.25 324.43-224.25 324.43S31.75 317.595 31.75 156.355c0-91.41 70.63-125.13 107.77-125.13 77.65 0 116.48 65.72 116.48 65.72s38.83-65.73 116.48-65.73c37.14.01 107.77 33.72 107.77 125.14z" fill="red"></path>
  </symbol>
  <symbol id="diamond" xmlns="http://www.w3.org/2000/svg" viewBox="0 0 512 512"><path d="M431.76 256c-69 42.24-137.27 126.89-175.76 224.78C217.51 382.89 149.25 298.24 80.24 256c69-42.24 137.27-126.89 175.76-224.78C294.49 129.11 362.75 213.76 431.76 256z" fill="red"></path>
  </symbol>
  <symbol id="spades" xmlns="http://www.w3.org/2000/svg" viewBox="0 0 512 512"><path d="M458.915 307.705c0 62.63-54 91.32-91.34 91.34-41.64 0-73.1-18.86-91.83-34.26 2.47 50.95 14.53 87.35 68.65 116h-176.79c54.12-28.65 66.18-65.05 68.65-116-18.73 15.39-50.2 34.28-91.83 34.26-37.29 0-91.34-28.71-91.34-91.34 0-114.47 80.64-83.32 202.91-276.49 122.28 193.17 202.92 162.03 202.92 276.49z" fill="black"></path>
  </symbol>
  <symbol id="club" xmlns="http://www.w3.org/2000/svg" viewBox="0 0 512 512"><path d="M477.443 295.143a104.45 104.45 0 0 1-202.26 36.67c-.08 68.73 4.33 114.46 69.55 149h-177.57c65.22-34.53 69.63-80.25 69.55-149a104.41 104.41 0 1 1-66.34-136.28 104.45 104.45 0 1 1 171.14 0 104.5 104.5 0 0 1 135.93 99.61z" fill="black"></path>
  </symbol>
  <symbol id="queen-red" xmlns="http://www.w3.org/2000/svg" viewBox="0 0 512 512"><path d="M477.518 181.966a25 25 0 0 1-34.91 23l-62.29 150.26h-248.92l-62.24-150.19a25 25 0 1 1 9.73-7.29l87 71.2 20.92-126.4a25 25 0 1 1 14.7-1.85l54.31 117 54.42-117.3a25 25 0 1 1 14.58 2.08l20.93 126.42 87.26-71.3a25 25 0 1 1 44.51-15.63zm-71.66 241.25h-300v60h300v-60zm-27.75-52h-244.22v36h244.22v-36z" fill="red"></path>
  </symbol>
  <symbol id="queen" xmlns="http://www.w3.org/2000/svg" viewBox="0 0 512 512"><path d="M477.518 181.966a25 25 0 0 1-34.91 23l-62.29 150.26h-248.92l-62.24-150.19a25 25 0 1 1 9.73-7.29l87 71.2 20.92-126.4a25 25 0 1 1 14.7-1.85l54.31 117 54.42-117.3a25 25 0 1 1 14.58 2.08l20.93 126.42 87.26-71.3a25 25 0 1 1 44.51-15.63zm-71.66 241.25h-300v60h300v-60zm-27.75-52h-244.22v36h244.22v-36z" fill="black"></path>
  </symbol>
  <symbol id="king-red" xmlns="http://www.w3.org/2000/svg" viewBox="0 0 512 512"><path d="M405.995 477.15h-300v-60h300v60zm-10.3-107.13h-279.4a96.88 96.88 0 0 1 6.65 31.12h266.1a96.88 96.88 0 0 1 6.65-31.12zm-139.7-241.06a35.76 35.76 0 0 0-35.76 35.76c0 50.16 35.76 99.34 35.76 99.34s35.76-49.18 35.76-99.34a35.76 35.76 0 0 0-35.76-35.76zm8-15.38V94.24h18.36v-16h-18.36V54.85h-16v23.39h-18.36v16h18.36v19.38a51.9 51.9 0 0 1 16-.04zm81.64 51.36a98.74 98.74 0 0 0-38.13 7.61c-3.23 51.75-37.07 98.85-38.58 100.93l-4.93 6.76V354h140c16.57-26.15 40.78-42.41 40.78-90a99.13 99.13 0 0 0-99.14-99.07zm-141.16 7.61a99.16 99.16 0 0 0-137.25 91.51c0 47.55 24.21 63.82 40.78 90h139.99v-73.82l-4.94-6.79c-1.51-2.05-35.34-49.15-38.58-100.9z" fill="red" ></path>
  </symbol>
  <symbol id="king" xmlns="http://www.w3.org/2000/svg" viewBox="0 0 512 512"><path d="M405.995 477.15h-300v-60h300v60zm-10.3-107.13h-279.4a96.88 96.88 0 0 1 6.65 31.12h266.1a96.88 96.88 0 0 1 6.65-31.12zm-139.7-241.06a35.76 35.76 0 0 0-35.76 35.76c0 50.16 35.76 99.34 35.76 99.34s35.76-49.18 35.76-99.34a35.76 35.76 0 0 0-35.76-35.76zm8-15.38V94.24h18.36v-16h-18.36V54.85h-16v23.39h-18.36v16h18.36v19.38a51.9 51.9 0 0 1 16-.04zm81.64 51.36a98.74 98.74 0 0 0-38.13 7.61c-3.23 51.75-37.07 98.85-38.58 100.93l-4.93 6.76V354h140c16.57-26.15 40.78-42.41 40.78-90a99.13 99.13 0 0 0-99.14-99.07zm-141.16 7.61a99.16 99.16 0 0 0-137.25 91.51c0 47.55 24.21 63.82 40.78 90h139.99v-73.82l-4.94-6.79c-1.51-2.05-35.34-49.15-38.58-100.9z" ></path>
  </symbol>
  <symbol id="jack-red" xmlns="http://www.w3.org/2000/svg" viewBox="0 0 512 512"><path d="M406 484.7H106v-60h300v60zm-56.67-330.83h-50.05V91.3h-82.39v62.57h-54.22V91.3h-54.23v113.67h295.12V91.3h-54.23v62.57zm23.35 67.23H139.32v187.6h233.36V221.1z" fill="red"></path>
  </symbol>
  <symbol id="jack" xmlns="http://www.w3.org/2000/svg" viewBox="0 0 512 512"><path d="M406 484.7H106v-60h300v60zm-56.67-330.83h-50.05V91.3h-82.39v62.57h-54.22V91.3h-54.23v113.67h295.12V91.3h-54.23v62.57zm23.35 67.23H139.32v187.6h233.36V221.1z" fill="black"></path>
  </symbol>
</svg>